<svg xmlns="http://www.w3.org/2000/svg" viewBox="0 0 64 64" fill="none">
  <!-- Neural network connections — all same subtle gray -->
  <!-- L1→L2 -->
  <line x1="8" y1="12" x2="20" y2="8" stroke="#94a3b8" stroke-width="0.7" opacity="0.35"/>
  <line x1="8" y1="12" x2="20" y2="20" stroke="#94a3b8" stroke-width="0.7" opacity="0.45"/>
  <line x1="8" y1="12" x2="20" y2="32" stroke="#94a3b8" stroke-width="0.7" opacity="0.25"/>
  <line x1="8" y1="12" x2="20" y2="44" stroke="#94a3b8" stroke-width="0.7" opacity="0.2"/>
  <line x1="8" y1="32" x2="20" y2="8" stroke="#94a3b8" stroke-width="0.7" opacity="0.2"/>
  <line x1="8" y1="32" x2="20" y2="20" stroke="#94a3b8" stroke-width="0.7" opacity="0.4"/>
  <line x1="8" y1="32" x2="20" y2="32" stroke="#94a3b8" stroke-width="0.7" opacity="0.5"/>
  <line x1="8" y1="32" x2="20" y2="44" stroke="#94a3b8" stroke-width="0.7" opacity="0.35"/>
  <line x1="8" y1="52" x2="20" y2="20" stroke="#94a3b8" stroke-width="0.7" opacity="0.2"/>
  <line x1="8" y1="52" x2="20" y2="32" stroke="#94a3b8" stroke-width="0.7" opacity="0.3"/>
  <line x1="8" y1="52" x2="20" y2="44" stroke="#94a3b8" stroke-width="0.7" opacity="0.5"/>
  <line x1="8" y1="52" x2="20" y2="8" stroke="#94a3b8" stroke-width="0.7" opacity="0.15"/>
  <!-- L2→L3 -->
  <line x1="20" y1="8" x2="44" y2="10" stroke="#94a3b8" stroke-width="0.7" opacity="0.4"/>
  <line x1="20" y1="8" x2="44" y2="22" stroke="#94a3b8" stroke-width="0.7" opacity="0.3"/>
  <line x1="20" y1="8" x2="44" y2="34" stroke="#94a3b8" stroke-width="0.7" opacity="0.2"/>
  <line x1="20" y1="8" x2="44" y2="46" stroke="#94a3b8" stroke-width="0.7" opacity="0.15"/>
  <line x1="20" y1="20" x2="44" y2="10" stroke="#94a3b8" stroke-width="0.7" opacity="0.35"/>
  <line x1="20" y1="20" x2="44" y2="22" stroke="#94a3b8" stroke-width="0.7" opacity="0.5"/>
  <line x1="20" y1="20" x2="44" y2="34" stroke="#94a3b8" stroke-width="0.7" opacity="0.3"/>
  <line x1="20" y1="20" x2="44" y2="46" stroke="#94a3b8" stroke-width="0.7" opacity="0.2"/>
  <line x1="20" y1="32" x2="44" y2="10" stroke="#94a3b8" stroke-width="0.7" opacity="0.2"/>
  <line x1="20" y1="32" x2="44" y2="22" stroke="#94a3b8" stroke-width="0.7" opacity="0.4"/>
  <line x1="20" y1="32" x2="44" y2="34" stroke="#94a3b8" stroke-width="0.7" opacity="0.5"/>
  <line x1="20" y1="32" x2="44" y2="46" stroke="#94a3b8" stroke-width="0.7" opacity="0.3"/>
  <line x1="20" y1="44" x2="44" y2="22" stroke="#94a3b8" stroke-width="0.7" opacity="0.25"/>
  <line x1="20" y1="44" x2="44" y2="34" stroke="#94a3b8" stroke-width="0.7" opacity="0.4"/>
  <line x1="20" y1="44" x2="44" y2="46" stroke="#94a3b8" stroke-width="0.7" opacity="0.5"/>
  <line x1="20" y1="44" x2="44" y2="10" stroke="#94a3b8" stroke-width="0.7" opacity="0.15"/>
  <!-- L3→Output -->
  <line x1="44" y1="10" x2="56" y2="22" stroke="#94a3b8" stroke-width="0.7" opacity="0.4"/>
  <line x1="44" y1="10" x2="56" y2="42" stroke="#94a3b8" stroke-width="0.7" opacity="0.25"/>
  <line x1="44" y1="22" x2="56" y2="22" stroke="#94a3b8" stroke-width="0.7" opacity="0.5"/>
  <line x1="44" y1="22" x2="56" y2="42" stroke="#94a3b8" stroke-width="0.7" opacity="0.3"/>
  <line x1="44" y1="34" x2="56" y2="22" stroke="#94a3b8" stroke-width="0.7" opacity="0.3"/>
  <line x1="44" y1="34" x2="56" y2="42" stroke="#94a3b8" stroke-width="0.7" opacity="0.5"/>
  <line x1="44" y1="46" x2="56" y2="22" stroke="#94a3b8" stroke-width="0.7" opacity="0.2"/>
  <line x1="44" y1="46" x2="56" y2="42" stroke="#94a3b8" stroke-width="0.7" opacity="0.4"/>
  <!-- Nodes — small gray dots, no stroke -->
  <circle cx="8" cy="12" r="2" fill="#64748b"/>
  <circle cx="8" cy="32" r="2" fill="#64748b"/>
  <circle cx="8" cy="52" r="2" fill="#64748b"/>
  <circle cx="20" cy="8" r="1.8" fill="#64748b"/>
  <circle cx="20" cy="20" r="1.8" fill="#64748b"/>
  <circle cx="20" cy="32" r="1.8" fill="#64748b"/>
  <circle cx="20" cy="44" r="1.8" fill="#64748b"/>
  <circle cx="44" cy="10" r="1.8" fill="#64748b"/>
  <circle cx="44" cy="22" r="1.8" fill="#64748b"/>
  <circle cx="44" cy="34" r="1.8" fill="#64748b"/>
  <circle cx="44" cy="46" r="1.8" fill="#64748b"/>
  <circle cx="56" cy="22" r="2" fill="#64748b"/>
  <circle cx="56" cy="42" r="2" fill="#64748b"/>
  <!-- ANCHOR — white, bold -->
  <circle cx="32" cy="17" r="4.5" stroke="#e2e8f0" stroke-width="2.5" fill="none"/>
  <line x1="32" y1="21.5" x2="32" y2="50" stroke="#e2e8f0" stroke-width="3" stroke-linecap="round"/>
  <line x1="25" y1="30" x2="39" y2="30" stroke="#e2e8f0" stroke-width="3" stroke-linecap="round"/>
  <path d="M22 43c0 7 4.5 10 10 10s10-3 10-10" stroke="#e2e8f0" stroke-width="2.5" stroke-linecap="round" fill="none"/>
  <line x1="22" y1="43" x2="20" y2="39" stroke="#e2e8f0" stroke-width="2.5" stroke-linecap="round"/>
  <line x1="42" y1="43" x2="44" y2="39" stroke="#e2e8f0" stroke-width="2.5" stroke-linecap="round"/>
</svg>
