<svg xmlns="http://www.w3.org/2000/svg" viewBox="0 0 64 64" fill="none">
  <!-- Connections Layer1→Layer2 -->
  <line x1="10" y1="12" x2="22" y2="8" stroke="#2563eb" stroke-width="0.8" opacity="0.4"/>
  <line x1="10" y1="12" x2="22" y2="20" stroke="#2563eb" stroke-width="0.8" opacity="0.5"/>
  <line x1="10" y1="12" x2="22" y2="32" stroke="#2563eb" stroke-width="0.8" opacity="0.3"/>
  <line x1="10" y1="12" x2="22" y2="44" stroke="#2563eb" stroke-width="0.8" opacity="0.3"/>
  <line x1="10" y1="32" x2="22" y2="8" stroke="#2563eb" stroke-width="0.8" opacity="0.3"/>
  <line x1="10" y1="32" x2="22" y2="20" stroke="#2563eb" stroke-width="0.8" opacity="0.5"/>
  <line x1="10" y1="32" x2="22" y2="32" stroke="#2563eb" stroke-width="0.8" opacity="0.6"/>
  <line x1="10" y1="32" x2="22" y2="44" stroke="#2563eb" stroke-width="0.8" opacity="0.4"/>
  <line x1="10" y1="52" x2="22" y2="20" stroke="#2563eb" stroke-width="0.8" opacity="0.3"/>
  <line x1="10" y1="52" x2="22" y2="32" stroke="#2563eb" stroke-width="0.8" opacity="0.4"/>
  <line x1="10" y1="52" x2="22" y2="44" stroke="#2563eb" stroke-width="0.8" opacity="0.6"/>
  <line x1="10" y1="52" x2="22" y2="8" stroke="#2563eb" stroke-width="0.8" opacity="0.2"/>
  <!-- Connections Layer2→Layer3 -->
  <line x1="22" y1="8" x2="42" y2="10" stroke="#3b82f6" stroke-width="0.8" opacity="0.5"/>
  <line x1="22" y1="8" x2="42" y2="22" stroke="#3b82f6" stroke-width="0.8" opacity="0.4"/>
  <line x1="22" y1="8" x2="42" y2="34" stroke="#3b82f6" stroke-width="0.8" opacity="0.3"/>
  <line x1="22" y1="8" x2="42" y2="46" stroke="#3b82f6" stroke-width="0.8" opacity="0.2"/>
  <line x1="22" y1="20" x2="42" y2="10" stroke="#3b82f6" stroke-width="0.8" opacity="0.4"/>
  <line x1="22" y1="20" x2="42" y2="22" stroke="#3b82f6" stroke-width="0.8" opacity="0.6"/>
  <line x1="22" y1="20" x2="42" y2="34" stroke="#3b82f6" stroke-width="0.8" opacity="0.4"/>
  <line x1="22" y1="20" x2="42" y2="46" stroke="#3b82f6" stroke-width="0.8" opacity="0.3"/>
  <line x1="22" y1="32" x2="42" y2="10" stroke="#3b82f6" stroke-width="0.8" opacity="0.3"/>
  <line x1="22" y1="32" x2="42" y2="22" stroke="#3b82f6" stroke-width="0.8" opacity="0.5"/>
  <line x1="22" y1="32" x2="42" y2="34" stroke="#3b82f6" stroke-width="0.8" opacity="0.6"/>
  <line x1="22" y1="32" x2="42" y2="46" stroke="#3b82f6" stroke-width="0.8" opacity="0.4"/>
  <line x1="22" y1="44" x2="42" y2="22" stroke="#3b82f6" stroke-width="0.8" opacity="0.3"/>
  <line x1="22" y1="44" x2="42" y2="34" stroke="#3b82f6" stroke-width="0.8" opacity="0.5"/>
  <line x1="22" y1="44" x2="42" y2="46" stroke="#3b82f6" stroke-width="0.8" opacity="0.6"/>
  <line x1="22" y1="44" x2="42" y2="10" stroke="#3b82f6" stroke-width="0.8" opacity="0.2"/>
  <!-- Connections Layer3→Output -->
  <line x1="42" y1="10" x2="54" y2="22" stroke="#60a5fa" stroke-width="0.8" opacity="0.5"/>
  <line x1="42" y1="10" x2="54" y2="42" stroke="#60a5fa" stroke-width="0.8" opacity="0.3"/>
  <line x1="42" y1="22" x2="54" y2="22" stroke="#60a5fa" stroke-width="0.8" opacity="0.6"/>
  <line x1="42" y1="22" x2="54" y2="42" stroke="#60a5fa" stroke-width="0.8" opacity="0.4"/>
  <line x1="42" y1="34" x2="54" y2="22" stroke="#60a5fa" stroke-width="0.8" opacity="0.4"/>
  <line x1="42" y1="34" x2="54" y2="42" stroke="#60a5fa" stroke-width="0.8" opacity="0.6"/>
  <line x1="42" y1="46" x2="54" y2="22" stroke="#60a5fa" stroke-width="0.8" opacity="0.3"/>
  <line x1="42" y1="46" x2="54" y2="42" stroke="#60a5fa" stroke-width="0.8" opacity="0.5"/>
  <!-- Nodes Layer 1 -->
  <circle cx="10" cy="12" r="3" fill="#1d4ed8" stroke="#38bdf8" stroke-width="1"/>
  <circle cx="10" cy="32" r="3" fill="#1d4ed8" stroke="#38bdf8" stroke-width="1"/>
  <circle cx="10" cy="52" r="3" fill="#1d4ed8" stroke="#38bdf8" stroke-width="1"/>
  <!-- Nodes Layer 2 -->
  <circle cx="22" cy="8" r="2.5" fill="#2563eb" stroke="#60a5fa" stroke-width="1"/>
  <circle cx="22" cy="20" r="2.5" fill="#2563eb" stroke="#60a5fa" stroke-width="1"/>
  <circle cx="22" cy="32" r="2.5" fill="#2563eb" stroke="#60a5fa" stroke-width="1"/>
  <circle cx="22" cy="44" r="2.5" fill="#2563eb" stroke="#60a5fa" stroke-width="1"/>
  <!-- Nodes Layer 3 -->
  <circle cx="42" cy="10" r="2.5" fill="#2563eb" stroke="#60a5fa" stroke-width="1"/>
  <circle cx="42" cy="22" r="2.5" fill="#2563eb" stroke="#60a5fa" stroke-width="1"/>
  <circle cx="42" cy="34" r="2.5" fill="#2563eb" stroke="#60a5fa" stroke-width="1"/>
  <circle cx="42" cy="46" r="2.5" fill="#2563eb" stroke="#60a5fa" stroke-width="1"/>
  <!-- Nodes Output -->
  <circle cx="54" cy="22" r="3" fill="#1d4ed8" stroke="#38bdf8" stroke-width="1"/>
  <circle cx="54" cy="42" r="3" fill="#1d4ed8" stroke="#38bdf8" stroke-width="1"/>
  <!-- ANCHOR -->
  <circle cx="32" cy="18" r="4" stroke="#38bdf8" stroke-width="2.5" fill="#0f172a"/>
  <line x1="32" y1="22" x2="32" y2="48" stroke="#38bdf8" stroke-width="2.5" stroke-linecap="round"/>
  <line x1="26" y1="30" x2="38" y2="30" stroke="#38bdf8" stroke-width="2.5" stroke-linecap="round"/>
  <path d="M23 42c0 6 4 9 9 9s9-3 9-9" stroke="#38bdf8" stroke-width="2.5" stroke-linecap="round" fill="none"/>
  <line x1="23" y1="42" x2="21" y2="39" stroke="#38bdf8" stroke-width="2" stroke-linecap="round"/>
  <line x1="41" y1="42" x2="43" y2="39" stroke="#38bdf8" stroke-width="2" stroke-linecap="round"/>
</svg>
