<?xml version="1.0" standalone="no"?>
<!DOCTYPE svg PUBLIC "-//W3C//DTD SVG 20010904//EN"
 "http://www.w3.org/TR/2001/REC-SVG-20010904/DTD/svg10.dtd">
<svg version="1.0" xmlns="http://www.w3.org/2000/svg"
 width="2409.000000pt" height="304.000000pt" viewBox="0 0 2409.000000 304.000000"
 preserveAspectRatio="xMidYMid meet">
<metadata>
Created by potrace 1.16, written by Peter Selinger 2001-2019
</metadata>
<g transform="translate(0.000000,304.000000) scale(0.100000,-0.100000)"
fill="#000000" stroke="none">
<path d="M20745 2621 c-57 -14 -96 -42 -126 -89 -48 -76 -40 -183 19 -246 63
-68 154 -83 240 -40 115 57 146 212 62 308 -49 55 -130 83 -195 67z m125 -41
c135 -69 119 -271 -26 -326 -108 -41 -234 47 -234 165 0 137 138 223 260 161z"/>
<path d="M20710 2424 c0 -95 2 -105 18 -102 12 2 18 14 20 41 4 50 31 49 66
-3 16 -24 34 -40 46 -40 25 0 25 11 0 43 -11 14 -20 28 -20 31 0 3 9 15 20 26
11 11 20 31 20 45 0 45 -32 65 -105 65 l-65 0 0 -106z"/>
<path d="M1195 2585 c-499 -92 -849 -449 -930 -948 -20 -121 -19 -350 0 -463
81 -464 377 -789 820 -901 134 -34 412 -44 551 -19 284 49 526 186 690 390 76
94 173 284 203 396 120 443 23 916 -248 1213 -128 139 -330 255 -537 308 -106
28 -138 31 -294 35 -125 2 -198 -1 -255 -11z m393 -321 c310 -63 520 -296 583
-644 17 -93 17 -334 0 -415 -59 -286 -198 -481 -415 -584 -114 -54 -176 -66
-341 -66 -173 0 -235 13 -360 75 -146 72 -246 173 -320 325 -79 161 -111 352
-94 562 32 400 248 672 594 748 84 19 260 18 353 -1z"/>
<path d="M13935 2590 c-319 -50 -601 -226 -771 -481 -171 -256 -237 -577 -188
-907 75 -507 423 -867 914 -947 123 -20 359 -20 473 0 352 62 635 264 792 566
95 184 135 362 135 604 0 361 -102 628 -324 851 -158 157 -325 246 -561 299
-84 19 -382 28 -470 15z m430 -340 c211 -67 374 -215 460 -419 54 -130 70
-220 70 -416 0 -196 -16 -286 -70 -416 -89 -210 -268 -368 -485 -426 -48 -13
-103 -18 -215 -18 -174 0 -232 13 -365 78 -68 33 -102 58 -171 127 -75 75 -93
100 -137 191 -65 135 -91 241 -99 401 -23 481 201 825 592 912 104 23 327 16
420 -14z"/>
<path d="M2910 1425 l0 -1155 605 0 605 0 0 160 0 160 -420 0 -420 0 0 995 0
995 -185 0 -185 0 0 -1155z"/>
<path d="M4480 1425 l0 -1157 423 5 c328 4 440 8 502 20 544 108 875 425 960
921 20 116 20 356 0 472 -82 473 -405 776 -930 871 -71 13 -179 17 -522 20
l-433 4 0 -1156z m920 806 c47 -12 132 -44 190 -72 90 -44 116 -63 187 -135
67 -68 90 -100 127 -176 76 -158 104 -322 86 -511 -33 -349 -204 -585 -498
-691 -120 -43 -224 -56 -443 -56 l-199 0 0 836 0 836 233 -5 c192 -4 247 -8
317 -26z"/>
<path d="M6700 1425 l0 -1155 635 0 635 0 0 160 0 160 -450 0 -450 0 0 345 0
345 248 0 249 0 53 148 c29 81 55 153 58 160 3 9 -61 12 -302 12 l-306 0 2
333 3 332 427 3 426 2 20 58 c11 31 36 101 55 155 l36 97 -669 0 -670 0 0
-1155z"/>
<path d="M8340 1425 l0 -1155 186 0 185 0 -3 875 c-2 480 0 871 3 867 3 -4 35
-52 72 -107 36 -55 321 -433 633 -840 311 -407 576 -752 587 -768 l21 -27 173
0 173 0 0 1155 0 1155 -185 0 -186 0 3 -854 c2 -470 2 -853 0 -851 -2 1 -36
50 -75 109 -40 58 -328 441 -642 851 l-569 745 -188 0 -188 0 0 -1155z"/>
<path d="M10800 1425 l0 -1157 423 5 c328 4 440 8 502 20 412 82 699 281 854
593 47 96 86 216 106 331 20 113 20 354 0 469 -83 474 -396 769 -925 870 -68
13 -174 17 -522 21 l-438 5 0 -1157z m920 806 c409 -104 628 -433 589 -886
-36 -413 -266 -672 -658 -740 -55 -10 -153 -15 -282 -15 l-199 0 0 836 0 836
233 -5 c193 -4 246 -8 317 -26z"/>
<path d="M15600 1425 l0 -1155 185 0 185 0 0 460 0 460 98 0 c93 0 101 -2 143
-30 83 -55 176 -189 430 -614 l164 -276 218 0 c120 0 216 3 214 7 -2 5 -84
139 -182 298 -230 376 -393 620 -460 693 l-54 58 37 13 c163 58 311 208 363
369 30 93 37 289 15 386 -50 212 -193 362 -416 436 -126 41 -232 50 -597 50
l-343 0 0 -1155z m700 825 c128 -24 230 -102 271 -208 35 -87 33 -216 -4 -297
-53 -115 -165 -200 -297 -225 -29 -6 -108 -10 -176 -10 l-124 0 0 375 0 375
139 0 c76 0 162 -5 191 -10z"/>
<path d="M17480 1425 l0 -1155 185 0 185 0 0 505 0 505 247 2 248 3 56 155 56
155 -303 3 -304 2 0 335 0 335 427 2 427 3 52 140 c29 77 53 146 53 153 1 9
-138 12 -664 12 l-665 0 0 -1155z"/>
<path d="M19060 1425 l0 -1155 185 0 185 0 0 505 0 505 246 2 247 3 57 158 58
157 -304 0 -304 0 0 335 0 335 426 2 427 3 47 130 c26 72 50 140 54 153 l7 22
-665 0 -666 0 0 -1155z"/>
<path d="M21780 2246 c-122 -33 -183 -88 -245 -220 -24 -50 -124 -313 -223
-583 l-180 -493 50 36 c27 20 76 45 109 55 58 18 116 19 1320 19 l1259 0 0
600 0 600 -1022 -1 c-781 0 -1034 -3 -1068 -13z m1346 -267 c70 -27 137 -88
171 -157 24 -50 28 -69 28 -147 0 -71 -5 -100 -22 -137 -32 -69 -94 -131 -166
-164 -54 -25 -73 -29 -152 -28 -107 1 -160 20 -231 86 -68 62 -96 126 -102
223 -5 103 19 173 86 244 97 103 245 133 388 80z m-538 -46 l3 -63 -171 0
-170 0 0 -65 0 -65 120 0 120 0 0 -65 0 -65 -120 0 -120 0 0 -65 0 -65 170 0
170 0 0 -65 0 -65 -242 2 -243 3 -3 310 c-1 170 0 316 3 323 3 10 57 12 242
10 l238 -3 3 -62z"/>
<path d="M22903 1851 c-26 -12 -52 -35 -70 -62 -24 -37 -28 -52 -28 -115 0
-64 3 -77 30 -115 102 -144 321 -88 341 87 8 63 -8 114 -49 161 -56 64 -142
81 -224 44z"/>
<path d="M21285 884 c-119 -29 -184 -87 -247 -221 -32 -68 -148 -373 -148
-388 0 -3 671 -5 1490 -5 l1490 0 0 315 0 315 -1262 -1 c-1063 -1 -1272 -3
-1323 -15z"/>
</g>
</svg>
